<?xml version="1.0" standalone="no"?>
<!DOCTYPE svg PUBLIC "-//W3C//DTD SVG 20010904//EN"
 "http://www.w3.org/TR/2001/REC-SVG-20010904/DTD/svg10.dtd">
<svg version="1.0" xmlns="http://www.w3.org/2000/svg"
 width="527.000000pt" height="121.000000pt" viewBox="0 0 527.000000 121.000000"
 preserveAspectRatio="xMidYMid meet">
<metadata>
Created by potrace 1.16, written by Peter Selinger 2001-2019
</metadata>
<g transform="translate(0.000000,121.000000) scale(0.100000,-0.100000)"
fill="#000000" stroke="none">
<path d="M537 889 c-92 -22 -167 -82 -214 -172 -24 -45 -28 -64 -28 -137 0
-110 26 -171 102 -240 30 -28 59 -50 64 -50 5 0 9 -55 9 -124 0 -123 0 -125
26 -145 22 -17 41 -21 110 -21 45 0 94 4 107 9 35 14 47 59 47 176 l0 102 40
28 c181 126 172 416 -18 533 -78 47 -160 61 -245 41z m180 -30 c76 -28 153
-105 177 -177 45 -135 1 -276 -109 -352 -43 -30 -45 -33 -45 -80 0 -49 -1 -50
-30 -50 l-30 0 0 145 c0 139 1 145 20 145 29 0 70 44 70 75 0 25 -31 65 -50
65 -6 0 -22 -11 -35 -25 -19 -18 -25 -35 -25 -65 l0 -41 -47 3 c-45 3 -48 5
-51 33 -5 57 -12 72 -37 83 -33 15 -50 7 -66 -30 -17 -41 4 -79 49 -93 l32 -9
0 -143 0 -143 -30 0 c-29 0 -30 1 -30 49 0 46 -2 50 -52 87 -31 24 -63 60 -82
94 -28 50 -31 63 -31 145 0 107 16 146 85 216 84 84 203 110 317 68z m-57
-519 l0 -140 -50 0 -50 0 0 140 0 140 50 0 50 0 0 -140z"/>
</g>
</svg>
